<svg xmlns="http://www.w3.org/2000/svg" width="500" height="500" viewBox="0 0 500 500"><rect width="500" height="500" fill="white"></rect><g transform="translate(250,250) scale(60,-60)"><g><line x1="-5" y1="-4.166666666666667" x2="-5" y2="4.166666666666667" stroke="#e5e5e5" stroke-width="0.008333333333333333"></line><line x1="-4" y1="-4.166666666666667" x2="-4" y2="4.166666666666667" stroke="#e5e5e5" stroke-width="0.008333333333333333"></line><line x1="-3" y1="-4.166666666666667" x2="-3" y2="4.166666666666667" stroke="#e5e5e5" stroke-width="0.008333333333333333"></line><line x1="-2" y1="-4.166666666666667" x2="-2" y2="4.166666666666667" stroke="#e5e5e5" stroke-width="0.008333333333333333"></line><line x1="-1" y1="-4.166666666666667" x2="-1" y2="4.166666666666667" stroke="#e5e5e5" stroke-width="0.008333333333333333"></line><line x1="0" y1="-4.166666666666667" x2="0" y2="4.166666666666667" stroke="#cccccc" stroke-width="0.025"></line><line x1="1" y1="-4.166666666666667" x2="1" y2="4.166666666666667" stroke="#e5e5e5" stroke-width="0.008333333333333333"></line><line x1="2" y1="-4.166666666666667" x2="2" y2="4.166666666666667" stroke="#e5e5e5" stroke-width="0.008333333333333333"></line><line x1="3" y1="-4.166666666666667" x2="3" y2="4.166666666666667" stroke="#e5e5e5" stroke-width="0.008333333333333333"></line><line x1="4" y1="-4.166666666666667" x2="4" y2="4.166666666666667" stroke="#e5e5e5" stroke-width="0.008333333333333333"></line><line x1="5" y1="-4.166666666666667" x2="5" y2="4.166666666666667" stroke="#e5e5e5" stroke-width="0.008333333333333333"></line><line x1="-4.166666666666667" y1="-5" x2="4.166666666666667" y2="-5" stroke="#e5e5e5" stroke-width="0.008333333333333333"></line><line x1="-4.166666666666667" y1="-4" x2="4.166666666666667" y2="-4" stroke="#e5e5e5" stroke-width="0.008333333333333333"></line><line x1="-4.166666666666667" y1="-3" x2="4.166666666666667" y2="-3" stroke="#e5e5e5" stroke-width="0.008333333333333333"></line><line x1="-4.166666666666667" y1="-2" x2="4.166666666666667" y2="-2" stroke="#e5e5e5" stroke-width="0.008333333333333333"></line><line x1="-4.166666666666667" y1="-1" x2="4.166666666666667" y2="-1" stroke="#e5e5e5" stroke-width="0.008333333333333333"></line><line x1="-4.166666666666667" y1="0" x2="4.166666666666667" y2="0" stroke="#cccccc" stroke-width="0.025"></line><line x1="-4.166666666666667" y1="1" x2="4.166666666666667" y2="1" stroke="#e5e5e5" stroke-width="0.008333333333333333"></line><line x1="-4.166666666666667" y1="2" x2="4.166666666666667" y2="2" stroke="#e5e5e5" stroke-width="0.008333333333333333"></line><line x1="-4.166666666666667" y1="3" x2="4.166666666666667" y2="3" stroke="#e5e5e5" stroke-width="0.008333333333333333"></line><line x1="-4.166666666666667" y1="4" x2="4.166666666666667" y2="4" stroke="#e5e5e5" stroke-width="0.008333333333333333"></line><line x1="-4.166666666666667" y1="5" x2="4.166666666666667" y2="5" stroke="#e5e5e5" stroke-width="0.008333333333333333"></line></g><g opacity="0.12451447144412296"><polygon points="2.1829419696157935,1.0806046117362795 2.1823396977183798,1.1051384488999885 2.180534332951892,1.12961318190106 2.177530224598184,1.1539698489639605 2.1733346098174087,1.1781497727443437 2.1679575962130655,1.2020947016879115 2.1614121374818978,1.2257469503635108 2.153714002207304,1.2490495384323896 2.144881735871437,1.2719463279188246 2.134936616177515,1.2943821584514208 2.123902601789971,1.3163029801492785 2.1118062746159296,1.3376559838328905 2.098676775767066,1.3583897282460808 2.084545735356116,1.3784542639824964 2.069447196297162,1.3978012538181026 2.053417532293273,1.416384089159789 2.036495360209067,1.4341580023295535 2.0187214470393027,1.4510801744137594 2.000138611697616,1.4671098384176484 1.98079162186201,1.4822083774766024 1.9607270861255943,1.4963394178875524 1.939993341712404,1.509468916736416 1.9186403380287922,1.5215652439104574 1.8967195163309343,1.5325992582980015 1.874283685798338,1.5425443779919232 1.8513868963119031,1.5513766443277903 1.8280843082430243,1.5590747796023845 1.804432059567425,1.565620238333552 1.7804871306238572,1.5709972519378952 1.756307206843474,1.5751928667186705 1.7319505397805735,1.5781969750723783 1.7074758067795022,1.5800023398388663 1.682941969615793,1.58060461173628 1.658408132452084,1.5800023398388663 1.6339333994510126,1.5781969750723785 1.609576732388112,1.5751928667186705 1.5853968086077288,1.5709972519378952 1.561451879664161,1.565620238333552 1.5377996309885618,1.5590747796023845 1.514497042919683,1.5513766443277903 1.491600253433248,1.5425443779919232 1.469164422900652,1.5325992582980017 1.447243601202794,1.5215652439104574 1.425890597519182,1.509468916736416 1.405156853105992,1.4963394178875526 1.3850923173695762,1.4822083774766024 1.3657453275339702,1.4671098384176484 1.3471624921922836,1.4510801744137594 1.329388579022519,1.4341580023295537 1.3124664069383132,1.4163840891597892 1.2964367429344241,1.3978012538181026 1.2813382038754701,1.3784542639824966 1.26720716346452,1.3583897282460808 1.2540776646156566,1.3376559838328905 1.241981337441615,1.3163029801492787 1.230947323054071,1.2943821584514208 1.2210022033601493,1.2719463279188246 1.2121699370242822,1.2490495384323899 1.2044718017496883,1.2257469503635108 1.1979263430185205,1.2020947016879118 1.1925493294141774,1.178149772744344 1.188353714633402,1.1539698489639605 1.1853496062796942,1.12961318190106 1.1835442415132063,1.1051384488999885 1.1829419696157926,1.0806046117362795 1.1835442415132063,1.0560707745725706 1.185349606279694,1.031596041571499 1.188353714633402,1.0072393745085986 1.1925493294141774,0.9830594507282153 1.1979263430185205,0.9591145217846475 1.204471801749688,0.9354622731090483 1.2121699370242822,0.9121596850401694 1.221002203360149,0.8892628955537345 1.2309473230540708,0.8668270650211385 1.241981337441615,0.8449062433232805 1.2540776646156566,0.8235532396396685 1.26720716346452,0.8028194952264783 1.2813382038754701,0.7827549594900627 1.2964367429344241,0.7634079696544567 1.3124664069383132,0.7448251343127701 1.3293885790225188,0.7270512211430055 1.3471624921922833,0.7101290490587997 1.3657453275339697,0.6940993850549109 1.3850923173695762,0.6790008459959567 1.4051568531059917,0.6648698055850065 1.425890597519182,0.6517403067361431 1.4472436012027938,0.6396439795621016 1.4691644229006515,0.6286099651745576 1.4916002534332478,0.6186648454806358 1.514497042919683,0.6098325791447687 1.5377996309885615,0.6021344438701747 1.5614518796641608,0.595588985139007 1.5853968086077286,0.5902119715346639 1.6095767323881118,0.5860163567538886 1.6339333994510128,0.5830122484001806 1.658408132452084,0.5812068836336929 1.682941969615793,0.5806046117362791 1.707475806779502,0.5812068836336929 1.731950539780573,0.5830122484001806 1.756307206843474,0.5860163567538886 1.7804871306238572,0.5902119715346639 1.804432059567425,0.595588985139007 1.8280843082430243,0.6021344438701746 1.851386896311903,0.6098325791447686 1.8742836857983383,0.6186648454806358 1.8967195163309343,0.6286099651745575 1.918640338028792,0.6396439795621016 1.939993341712404,0.651740306736143 1.960727086125594,0.6648698055850064 1.9807916218620096,0.6790008459959566 2.000138611697616,0.6940993850549108 2.0187214470393027,0.7101290490587997 2.036495360209067,0.7270512211430054 2.0534175322932726,0.7448251343127699 2.0694471962971615,0.7634079696544562 2.084545735356116,0.7827549594900627 2.098676775767066,0.8028194952264782 2.1118062746159296,0.8235532396396683 2.123902601789971,0.8449062433232803 2.134936616177515,0.866827065021138 2.1448817358714365,0.8892628955537342 2.153714002207304,0.9121596850401694 2.1614121374818978,0.9354622731090482 2.1679575962130655,0.9591145217846473 2.1733346098174087,0.9830594507282151 2.177530224598184,1.0072393745085984 2.180534332951892,1.0315960415714993 2.1823396977183798,1.0560707745725704" fill="#6b21a8" fill-opacity="0" stroke="#6b21a8" stroke-width="0.03333333333333333"></polygon></g><g opacity="0.2865047968601901"><polygon points="0.7822400161197349,-1.9799849932008908 0.781637744222321,-1.955451156037182 0.7798323794558333,-1.9309764230361104 0.7768282711021254,-1.9066197559732099 0.7726326563213501,-1.8824398321928266 0.7672556427170069,-1.8584949032492588 0.7607101839858392,-1.8348426545736596 0.7530120487112453,-1.8115400665047807 0.7441797823753782,-1.7886432770183458 0.7342346626814564,-1.7662074464857496 0.7232006482939124,-1.7442866247878919 0.7111043211198709,-1.7229336211042798 0.6979748222710074,-1.7021998766910895 0.6838437818600572,-1.682135340954674 0.6687452428011033,-1.6627883511190678 0.6527155787972143,-1.6442055157773814 0.6357934067130085,-1.6264316026076169 0.6180194935432439,-1.609509430523411 0.5994366582015574,-1.593479766519522 0.5800896683659514,-1.578381227460568 0.5600251326295358,-1.564250187049618 0.5392913882163455,-1.5511206882007544 0.5179383845327336,-1.539024361026713 0.49601756283487575,-1.5279903466391689 0.4735817323022795,-1.5180452269452471 0.4506849428158446,-1.50921296060938 0.42738235474696573,-1.5015148253347859 0.4037301060713665,-1.4949693666036183 0.3797851771277987,-1.4895923529992752 0.3556052533474154,-1.4853967382184998 0.33124858628451487,-1.482392629864792 0.30677385328344353,-1.480587265098304 0.2822400161197345,-1.4799849932008904 0.2577061789560254,-1.480587265098304 0.23323144595495407,-1.4823926298647918 0.20887477889205353,-1.4853967382184998 0.18469485511167025,-1.4895923529992752 0.16074992616810238,-1.4949693666036183 0.1370976774925032,-1.5015148253347859 0.11379508942362432,-1.50921296060938 0.0908982999371894,-1.5180452269452471 0.0684624694045933,-1.5279903466391687 0.046541647706735356,-1.539024361026713 0.02518864402312343,-1.5511206882007544 0.004454899609933227,-1.5642501870496177 -0.015609636126482529,-1.578381227460568 -0.03495662596208854,-1.593479766519522 -0.05353946130377507,-1.609509430523411 -0.07131337447353964,-1.6264316026076167 -0.08823554655774535,-1.6442055157773812 -0.1042652105616344,-1.6627883511190678 -0.11936374962058832,-1.6821353409546738 -0.13349479003153863,-1.7021998766910895 -0.14662428888040197,-1.7229336211042798 -0.15872061605444343,-1.7442866247878916 -0.16975463044198763,-1.7662074464857496 -0.17969975013590933,-1.7886432770183458 -0.18853201647177636,-1.8115400665047805 -0.19623015174637043,-1.8348426545736596 -0.202775610477538,-1.8584949032492586 -0.20815262408188123,-1.8824398321928264 -0.21234823886265652,-1.9066197559732099 -0.21535234721636443,-1.9309764230361104 -0.21715771198285222,-1.955451156037182 -0.21775998388026602,-1.9799849932008908 -0.21715771198285222,-2.0045188303645998 -0.21535234721636448,-2.0289935633656713 -0.21234823886265652,-2.053350230428572 -0.20815262408188123,-2.0775301542089553 -0.202775610477538,-2.101475083152523 -0.19623015174637048,-2.125127331828122 -0.18853201647177642,-2.148429919897001 -0.1796997501359094,-2.1713267093834356 -0.1697546304419877,-2.193762539916032 -0.1587206160544435,-2.21568336161389 -0.14662428888040202,-2.237036365297502 -0.1334947900315387,-2.257770109710692 -0.11936374962058838,-2.2778346454471077 -0.10426521056163446,-2.2971816352827137 -0.08823554655774546,-2.3157644706244005 -0.07131337447353975,-2.333538383794165 -0.05353946130377518,-2.3504605558783704 -0.034956625962088816,-2.3664902198822597 -0.015609636126482418,-2.3815887589412137 0.004454899609933116,-2.3957197993521637 0.02518864402312332,-2.4088492982010274 0.046541647706735245,-2.4209456253750687 0.068462469404593,-2.4319796397626128 0.09089829993718909,-2.4419247594565343 0.11379508942362432,-2.450757025792402 0.13709767749250307,-2.4584551610669956 0.16074992616810224,-2.4650006197981633 0.18469485511167,-2.4703776334025065 0.2088747788920532,-2.474573248183282 0.23323144595495415,-2.47757735653699 0.2577061789560254,-2.4793827213034776 0.2822400161197343,-2.4799849932008913 0.30677385328344325,-2.4793827213034776 0.33124858628451453,-2.47757735653699 0.35560525334741544,-2.474573248183282 0.3797851771277987,-2.4703776334025065 0.4037301060713664,-2.4650006197981633 0.4273823547469656,-2.4584551610669956 0.45068494281584437,-2.450757025792402 0.4735817323022796,-2.4419247594565343 0.4960175628348757,-2.4319796397626128 0.5179383845327334,-2.4209456253750687 0.5392913882163455,-2.4088492982010274 0.5600251326295356,-2.3957197993521637 0.5800896683659511,-2.3815887589412137 0.5994366582015576,-2.3664902198822597 0.6180194935432439,-2.350460555878371 0.6357934067130084,-2.3335383837941652 0.6527155787972142,-2.3157644706244005 0.668745242801103,-2.297181635282714 0.6838437818600573,-2.2778346454471077 0.6979748222710074,-2.257770109710692 0.7111043211198709,-2.237036365297502 0.7232006482939122,-2.2156833616138902 0.7342346626814564,-2.1937625399160323 0.7441797823753781,-2.171326709383436 0.7530120487112453,-2.148429919897001 0.7607101839858392,-2.1251273318281223 0.7672556427170069,-2.101475083152523 0.77263265632135,-2.0775301542089553 0.7768282711021253,-2.0533502304285722 0.7798323794558333,-2.0289935633656713 0.781637744222321,-2.0045188303645998" fill="#6b21a8" fill-opacity="0" stroke="#6b21a8" stroke-width="0.03333333333333333"></polygon></g><g opacity="1"><polygon points="-0.058830996397851276,1.9203405733007322 -0.059433268295265074,1.944874410464441 -0.06123863306175281,1.9693491434655126 -0.06424274141546077,1.9937058105284131 -0.06843835619623606,2.0178857343087966 -0.07381536980057929,2.041830663252364 -0.08036082853174686,2.0654829119279636 -0.08805896380634087,2.0887854999968423 -0.09689123014220796,2.1116822894832774 -0.10683634983612966,2.134118120015873 -0.11787036422367381,2.156038941713731 -0.12996669139771527,2.177391945397343 -0.14309619024657871,2.1981256898105332 -0.15722723065752892,2.218190225546949 -0.1723257697164829,2.237537215382555 -0.18835543372037178,2.256120050724242 -0.2052776058045776,2.273893963894006 -0.22305151897434228,2.290816135978212 -0.2416343543160287,2.306845799982101 -0.2609813441516347,2.321944339041055 -0.28104587988805035,2.336075379452005 -0.30177962430124067,2.3492048783008688 -0.3231326279848526,2.36130120547491 -0.34505344968271046,2.372335219862454 -0.36748928021530664,2.382280339556376 -0.39038606970174156,2.391112605892243 -0.4136886577706204,2.398810741166837 -0.4373409064462196,2.4053561998980046 -0.46128583538978746,2.410733213502348 -0.48546575917017076,2.414928828283123 -0.5098224262330713,2.417932936636831 -0.5342971592341427,2.419738301403319 -0.5588309963978517,2.4203405733007326 -0.5833648335615608,2.419738301403319 -0.607839566562632,2.417932936636831 -0.6321962336255326,2.414928828283123 -0.6563761574059159,2.410733213502348 -0.6803210863494837,2.4053561998980046 -0.703973335025083,2.398810741166837 -0.7272759230939618,2.391112605892243 -0.7501727125803967,2.382280339556376 -0.7726085431129929,2.372335219862454 -0.7945293648108508,2.36130120547491 -0.8158823684944627,2.3492048783008688 -0.8366161129076529,2.336075379452005 -0.8566806486440687,2.321944339041055 -0.8760276384796747,2.306845799982101 -0.8946104738213612,2.290816135978212 -0.9123843869911258,2.273893963894006 -0.9293065590753316,2.256120050724242 -0.9453362230792206,2.237537215382555 -0.9604347621381745,2.218190225546949 -0.9745658025491248,2.1981256898105332 -0.9876953013979881,2.177391945397343 -0.9997916285720296,2.156038941713731 -1.0108256429595737,2.134118120015873 -1.0207707626534954,2.1116822894832774 -1.0296030289893625,2.0887854999968423 -1.0373011642639565,2.0654829119279636 -1.0438466229951242,2.041830663252364 -1.0492236365994674,2.0178857343087966 -1.0534192513802427,1.9937058105284131 -1.0564233597339505,1.9693491434655126 -1.0582287245004385,1.944874410464441 -1.0588309963978522,1.9203405733007322 -1.0582287245004385,1.8958067361370232 -1.0564233597339507,1.8713320031359517 -1.0534192513802427,1.8469753360730512 -1.0492236365994674,1.822795412292668 -1.0438466229951242,1.7988504833491001 -1.0373011642639567,1.775198234673501 -1.0296030289893625,1.751895646604622 -1.0207707626534956,1.7289988571181871 -1.010825642959574,1.7065630265855911 -0.9997916285720296,1.6846422048877332 -0.9876953013979881,1.6632892012041212 -0.9745658025491248,1.642555456790931 -0.9604347621381746,1.6224909210545153 -0.9453362230792206,1.6031439312189093 -0.9293065590753316,1.5845610958772227 -0.9123843869911259,1.5667871827074582 -0.8946104738213614,1.5498650106232523 -0.876027638479675,1.5338353466193635 -0.8566806486440686,1.5187368075604093 -0.836616112907653,1.5046057671494593 -0.8158823684944628,1.4914762683005958 -0.7945293648108509,1.4793799411265542 -0.7726085431129932,1.4683459267390102 -0.7501727125803971,1.4584008070450885 -0.7272759230939618,1.4495685407092214 -0.7039733350250831,1.4418704054346274 -0.6803210863494839,1.4353249467034597 -0.6563761574059161,1.4299479330991165 -0.6321962336255329,1.4257523183183411 -0.6078395665626319,1.4227482099646331 -0.5833648335615608,1.4209428451981454 -0.5588309963978518,1.4203405733007317 -0.5342971592341429,1.4209428451981454 -0.5098224262330716,1.4227482099646331 -0.48546575917017065,1.4257523183183411 -0.4612858353897875,1.4299479330991165 -0.4373409064462197,1.4353249467034597 -0.4136886577706206,1.4418704054346272 -0.3903860697017418,1.4495685407092211 -0.3674892802153066,1.4584008070450885 -0.34505344968271046,1.4683459267390102 -0.3231326279848527,1.4793799411265542 -0.3017796243012407,1.4914762683005955 -0.2810458798880506,1.504605767149459 -0.26098134415163504,1.5187368075604093 -0.24163435431602864,1.5338353466193633 -0.22305151897434228,1.5498650106232523 -0.2052776058045777,1.566787182707458 -0.18835543372037195,1.5845610958772225 -0.1723257697164831,1.6031439312189089 -0.15722723065752886,1.6224909210545153 -0.14309619024657871,1.6425554567909308 -0.12996669139771533,1.663289201204121 -0.11787036422367392,1.684642204887733 -0.10683634983612977,1.7065630265855907 -0.09689123014220807,1.728998857118187 -0.08805896380634087,1.751895646604622 -0.08036082853174686,1.7751982346735007 -0.07381536980057929,1.7988504833491 -0.06843835619623612,1.8227954122926677 -0.06424274141546082,1.846975336073051 -0.06123863306175281,1.871332003135952 -0.059433268295265074,1.895806736137023" fill="#6b21a8" fill-opacity="0" stroke="#6b21a8" stroke-width="0.03333333333333333"></polygon></g><g><line x1="0" y1="1.999999999999996" x2="0.11640942926027144" y2="1.9756434578428181" stroke="#f97316" stroke-width="0.05" stroke-linecap="round" opacity="0.08225685007026624"></line><line x1="0.11640942926027144" y1="1.9756434578428181" x2="0.2462821144911352" y2="1.9367980480097122" stroke="#f97316" stroke-width="0.05" stroke-linecap="round" opacity="0.10088759929305607"></line><line x1="0.2462821144911352" y1="1.9367980480097122" x2="0.37688695840039155" y2="1.887430978712125" stroke="#f97316" stroke-width="0.05" stroke-linecap="round" opacity="0.10650413041681944"></line><line x1="0.37688695840039155" y1="1.887430978712125" x2="0.5119607023529535" y2="1.8255723929819612" stroke="#f97316" stroke-width="0.05" stroke-linecap="round" opacity="0.11149881878535366"></line><line x1="0.5119607023529535" y1="1.8255723929819612" x2="0.6384394527811542" y2="1.7570955373894277" stroke="#f97316" stroke-width="0.05" stroke-linecap="round" opacity="0.11648533183008555"></line><line x1="0.6384394527811542" y1="1.7570955373894277" x2="0.7589353312362331" y2="1.681397606961665" stroke="#f97316" stroke-width="0.05" stroke-linecap="round" opacity="0.12118858689579926"></line><line x1="0.7589353312362331" y1="1.681397606961665" x2="0.8776941472257366" y2="1.595460497688255" stroke="#f97316" stroke-width="0.05" stroke-linecap="round" opacity="0.1258197634811105"></line><line x1="0.8776941472257366" y1="1.595460497688255" x2="0.9864477842960918" y2="1.505275272423741" stroke="#f97316" stroke-width="0.05" stroke-linecap="round" opacity="0.13062753471320765"></line><line x1="0.9864477842960918" y1="1.505275272423741" x2="1.090402874977634" y2="1.4067830210975683" stroke="#f97316" stroke-width="0.05" stroke-linecap="round" opacity="0.13533528323661265"></line><line x1="1.090402874977634" y1="1.4067830210975683" x2="1.1827276371927817" y2="1.3069694494889759" stroke="#f97316" stroke-width="0.05" stroke-linecap="round" opacity="0.1402158952337805"></line><line x1="1.1827276371927817" y1="1.3069694494889759" x2="1.268769927451958" y2="1.2007642360084232" stroke="#f97316" stroke-width="0.05" stroke-linecap="round" opacity="0.1449669628574386"></line><line x1="1.268769927451958" y1="1.2007642360084232" x2="1.3477353840138984" y2="1.088713822453377" stroke="#f97316" stroke-width="0.05" stroke-linecap="round" opacity="0.14988229193311015"></line><line x1="1.3477353840138984" y1="1.088713822453377" x2="1.4189365316003353" y2="0.9714071612813365" stroke="#f97316" stroke-width="0.05" stroke-linecap="round" opacity="0.15496189563791662"></line><line x1="1.4189365316003353" y1="0.9714071612813365" x2="1.4817832189140892" y2="0.8494705401064636" stroke="#f97316" stroke-width="0.05" stroke-linecap="round" opacity="0.16021446699178832"></line><line x1="1.4817832189140892" y1="0.8494705401064636" x2="1.5357750038563123" y2="0.7235628230056628" stroke="#f97316" stroke-width="0.05" stroke-linecap="round" opacity="0.16564550788370513"></line><line x1="1.5357750038563123" y1="0.7235628230056628" x2="1.5804951372189655" y2="0.5943709908736428" stroke="#f97316" stroke-width="0.05" stroke-linecap="round" opacity="0.1712582310931425"></line><line x1="1.5804951372189655" y1="0.5943709908736428" x2="1.6156058485112044" y2="0.4626058770226638" stroke="#f97316" stroke-width="0.05" stroke-linecap="round" opacity="0.17706500627934826"></line><line x1="1.6156058485112044" y1="0.4626058770226638" x2="1.6408446784585" y2="0.3289980084882213" stroke="#f97316" stroke-width="0.05" stroke-linecap="round" opacity="0.18306584900925227"></line><line x1="1.6408446784585" y1="0.3289980084882213" x2="1.6560216353810238" y2="0.19429347860965904" stroke="#f97316" stroke-width="0.05" stroke-linecap="round" opacity="0.18927102887246833"></line><line x1="1.6560216353810238" y1="0.19429347860965904" x2="1.6610043689010539" y2="0.06768551355816789" stroke="#f97316" stroke-width="0.05" stroke-linecap="round" opacity="0.19568704558283345"></line><line x1="1.6610043689010539" y1="0.06768551355816789" x2="1.656406628584811" y2="-0.06698171383250631" stroke="#f97316" stroke-width="0.05" stroke-linecap="round" opacity="0.20189806741012706"></line><line x1="1.656406628584811" y1="-0.06698171383250631" x2="1.642813259988988" y2="-0.1922067583495637" stroke="#f97316" stroke-width="0.05" stroke-linecap="round" opacity="0.20874143161759148"></line><line x1="1.642813259988988" y1="-0.1922067583495637" x2="1.6184833365590576" y2="-0.3239593532556368" stroke="#f97316" stroke-width="0.05" stroke-linecap="round" opacity="0.2153683950207849"></line><line x1="1.6184833365590576" y1="-0.3239593532556368" x2="1.5865782066910277" y2="-0.44510812842771336" stroke="#f97316" stroke-width="0.05" stroke-linecap="round" opacity="0.22266757691814035"></line><line x1="1.5865782066910277" y1="-0.44510812842771336" x2="1.5460377716078388" y2="-0.5633311685562681" stroke="#f97316" stroke-width="0.05" stroke-linecap="round" opacity="0.22973422871128307"></line><line x1="1.5460377716078388" y1="-0.5633311685562681" x2="1.4935165709380767" y2="-0.6855264303356968" stroke="#f97316" stroke-width="0.05" stroke-linecap="round" opacity="0.2370280528388501"></line><line x1="1.4935165709380767" y1="-0.6855264303356968" x2="1.431728414586395" y2="-0.80298247327379" stroke="#f97316" stroke-width="0.05" stroke-linecap="round" opacity="0.24506343636960684"></line><line x1="1.431728414586395" y1="-0.80298247327379" x2="1.3610480205119093" y2="-0.9150038816561942" stroke="#f97316" stroke-width="0.05" stroke-linecap="round" opacity="0.25336733220811924"></line><line x1="1.3610480205119093" y1="-0.9150038816561942" x2="1.2870919116805837" y2="-1.01449453328248" stroke="#f97316" stroke-width="0.05" stroke-linecap="round" opacity="0.2619577055679683"></line><line x1="1.2870919116805837" y1="-1.01449453328248" x2="1.2004580283651964" y2="-1.114117228806562" stroke="#f97316" stroke-width="0.05" stroke-linecap="round" opacity="0.2702733451113461"></line><line x1="1.2004580283651964" y1="-1.114117228806562" x2="1.1063499092119131" y2="-1.206443338060639" stroke="#f97316" stroke-width="0.05" stroke-linecap="round" opacity="0.2794316042279353"></line><line x1="1.1063499092119131" y1="-1.206443338060639" x2="1.005349230100914" y2="-1.2909149028713338" stroke="#f97316" stroke-width="0.05" stroke-linecap="round" opacity="0.28890547436741765"></line><line x1="1.005349230100914" y1="-1.2909149028713338" x2="0.884266398953496" y2="-1.3759204168958918" stroke="#f97316" stroke-width="0.05" stroke-linecap="round" opacity="0.29869737642527827"></line><line x1="0.884266398953496" y1="-1.3759204168958918" x2="0.7562079725697711" y2="-1.4496824117413984" stroke="#f97316" stroke-width="0.05" stroke-linecap="round" opacity="0.31011205010694076"></line><line x1="0.7562079725697711" y1="-1.4496824117413984" x2="0.6221859692761244" y2="-1.511630470950509" stroke="#f97316" stroke-width="0.05" stroke-linecap="round" opacity="0.3219619874479916"></line><line x1="0.6221859692761244" y1="-1.511630470950509" x2="0.4832627081832165" y2="-1.5612844459336226" stroke="#f97316" stroke-width="0.05" stroke-linecap="round" opacity="0.334263746285933"></line><line x1="0.4832627081832165" y1="-1.5612844459336226" x2="0.340542326144849" y2="-1.5982591388131488" stroke="#f97316" stroke-width="0.05" stroke-linecap="round" opacity="0.34703451267231605"></line><line x1="0.340542326144849" y1="-1.5982591388131488" x2="0.19516187715298025" y2="-1.6222681580677372" stroke="#f97316" stroke-width="0.05" stroke-linecap="round" opacity="0.3602964587792026"></line><line x1="0.19516187715298025" y1="-1.6222681580677372" x2="0.048282098525801384" y2="-1.6331269056153113" stroke="#f97316" stroke-width="0.05" stroke-linecap="round" opacity="0.37406591481542145"></line><line x1="0.048282098525801384" y1="-1.6331269056153113" x2="-0.10708588555847327" y2="-1.6302349181406546" stroke="#f97316" stroke-width="0.05" stroke-linecap="round" opacity="0.38836045970752636"></line><line x1="-0.10708588555847327" y1="-1.6302349181406546" x2="-0.2533528942586972" y2="-1.6139251581745142" stroke="#f97316" stroke-width="0.05" stroke-linecap="round" opacity="0.40404130021343826"></line><line x1="-0.2533528942586972" y1="-1.6139251581745142" x2="-0.3975254986095904" y2="-1.5845486726793954" stroke="#f97316" stroke-width="0.05" stroke-linecap="round" opacity="0.4194803543492931"></line><line x1="-0.3975254986095904" y1="-1.5845486726793954" x2="-0.5384452246179887" y2="-1.5423455062108014" stroke="#f97316" stroke-width="0.05" stroke-linecap="round" opacity="0.43550807428002947"></line><line x1="-0.5384452246179887" y1="-1.5423455062108014" x2="-0.6749784914291106" y2="-1.4876586305952515" stroke="#f97316" stroke-width="0.05" stroke-linecap="round" opacity="0.45214685108433583"></line><line x1="-0.6749784914291106" y1="-1.4876586305952515" x2="-0.8060259637355576" y2="-1.420931417394873" stroke="#f97316" stroke-width="0.05" stroke-linecap="round" opacity="0.4694261376263021"></line><line x1="-0.8060259637355576" y1="-1.420931417394873" x2="-0.9305316210619713" y2="-1.342704246822967" stroke="#f97316" stroke-width="0.05" stroke-linecap="round" opacity="0.48736610259127816"></line><line x1="-0.9305316210619713" y1="-1.342704246822967" x2="-1.0474914663360542" y2="-1.2536102874457762" stroke="#f97316" stroke-width="0.05" stroke-linecap="round" opacity="0.5059901916728352"></line><line x1="-1.0474914663360542" y1="-1.2536102874457762" x2="-1.1617210731056642" y2="-1.1485754406176458" stroke="#f97316" stroke-width="0.05" stroke-linecap="round" opacity="0.5253244312058705"></line><line x1="-1.1617210731056642" y1="-1.1485754406176458" x2="-1.2602817860096007" y2="-1.0394988271702423" stroke="#f97316" stroke-width="0.05" stroke-linecap="round" opacity="0.5465358393122924"></line><line x1="-1.2602817860096007" y1="-1.0394988271702423" x2="-1.3486348813769677" y2="-0.922008810076581" stroke="#f97316" stroke-width="0.05" stroke-linecap="round" opacity="0.5674180404126251"></line><line x1="-1.3486348813769677" y1="-0.922008810076581" x2="-1.4260665869785871" y2="-0.79705606965938" stroke="#f97316" stroke-width="0.05" stroke-linecap="round" opacity="0.5890963704818863"></line><line x1="-1.4260665869785871" y1="-0.79705606965938" x2="-1.491951196453586" y2="-0.6656517279450878" stroke="#f97316" stroke-width="0.05" stroke-linecap="round" opacity="0.611609939624199"></line><line x1="-1.491951196453586" y1="-0.6656517279450878" x2="-1.545756206867012" y2="-0.5288591781475115" stroke="#f97316" stroke-width="0.05" stroke-linecap="round" opacity="0.6349835817522391"></line><line x1="-1.545756206867012" y1="-0.5288591781475115" x2="-1.5870466893603636" y2="-0.3877854827036696" stroke="#f97316" stroke-width="0.05" stroke-linecap="round" opacity="0.6592485507352175"></line><line x1="-1.5870466893603636" y1="-0.3877854827036696" x2="-1.6154888587741794" y2="-0.2435724120811081" stroke="#f97316" stroke-width="0.05" stroke-linecap="round" opacity="0.6844387553495587"></line><line x1="-1.6154888587741794" y1="-0.2435724120811081" x2="-1.6313199025924399" y2="-0.08923169636690839" stroke="#f97316" stroke-width="0.05" stroke-linecap="round" opacity="0.7105893909690475"></line><line x1="-1.6313199025924399" y1="-0.08923169636690839" x2="-1.6327465627636661" y2="0.057751378520430253" stroke="#f97316" stroke-width="0.05" stroke-linecap="round" opacity="0.7392818795705353"></line><line x1="-1.6327465627636661" y1="0.057751378520430253" x2="-1.6209557452893402" y2="0.20426760534120283" stroke="#f97316" stroke-width="0.05" stroke-linecap="round" opacity="0.767526142495567"></line><line x1="-1.6209557452893402" y1="0.20426760534120283" x2="-1.5960430259795646" y2="0.3491309963310645" stroke="#f97316" stroke-width="0.05" stroke-linecap="round" opacity="0.7968595753087662"></line><line x1="-1.5960430259795646" y1="0.3491309963310645" x2="-1.5582101675207927" y2="0.4911689206984445" stroke="#f97316" stroke-width="0.05" stroke-linecap="round" opacity="0.8273126524731639"></line><line x1="-1.5582101675207927" y1="0.4911689206984445" x2="-1.5077634958830284" y2="0.6292316030271315" stroke="#f97316" stroke-width="0.05" stroke-linecap="round" opacity="0.8589270153294457"></line><line x1="-1.5077634958830284" y1="0.6292316030271315" x2="-1.4451114274321537" y2="0.762201435812346" stroke="#f97316" stroke-width="0.05" stroke-linecap="round" opacity="0.8917468424029525"></line><line x1="-1.4451114274321537" y1="0.762201435812346" x2="-1.370761167488979" y2="0.8890020306602661" stroke="#f97316" stroke-width="0.05" stroke-linecap="round" opacity="0.9258179884676776"></line><line x1="-1.370761167488979" y1="0.8890020306602661" x2="-1.280255708126877" y2="1.015020916014764" stroke="#f97316" stroke-width="0.05" stroke-linecap="round" opacity="0.9611915137594691"></line></g><g><line x1="0" y1="1.999999999999996" x2="0.14522506784091682" y2="1.9763189640459191" stroke="#cc0000" stroke-width="0.05" stroke-linecap="round" opacity="0.08225685007026624"></line><line x1="0.14522506784091682" y1="1.9763189640459191" x2="0.2984339378368028" y2="1.939636207716876" stroke="#cc0000" stroke-width="0.05" stroke-linecap="round" opacity="0.09398914079158578"></line><line x1="0.2984339378368028" y1="1.939636207716876" x2="0.4476692786795621" y2="1.8919056782177532" stroke="#cc0000" stroke-width="0.05" stroke-linecap="round" opacity="0.09717498636003725"></line><line x1="0.4476692786795621" y1="1.8919056782177532" x2="0.5921444874099764" y2="1.8336023287779992" stroke="#cc0000" stroke-width="0.05" stroke-linecap="round" opacity="0.10046907917513785"></line><line x1="0.5921444874099764" y1="1.8336023287779992" x2="0.731108972936653" y2="1.7651956759662972" stroke="#cc0000" stroke-width="0.05" stroke-linecap="round" opacity="0.10387336788614228"></line><line x1="0.731108972936653" y1="1.7651956759662972" x2="0.8638517044924451" y2="1.687179024757773" stroke="#cc0000" stroke-width="0.05" stroke-linecap="round" opacity="0.10739535507063465"></line><line x1="0.8638517044924451" y1="1.687179024757773" x2="0.9897038035044013" y2="1.600078575991022" stroke="#cc0000" stroke-width="0.05" stroke-linecap="round" opacity="0.1110350501704351"></line><line x1="0.9897038035044013" y1="1.600078575991022" x2="1.1151735947390393" y2="1.4982095719481716" stroke="#cc0000" stroke-width="0.05" stroke-linecap="round" opacity="0.11479868200650716"></line><line x1="1.1151735947390393" y1="1.4982095719481716" x2="1.2248919396388636" y2="1.3941847628122541" stroke="#cc0000" stroke-width="0.05" stroke-linecap="round" opacity="0.11893718968833021"></line><line x1="1.2248919396388636" y1="1.3941847628122541" x2="1.3259522800118058" y2="1.2829016426800797" stroke="#cc0000" stroke-width="0.05" stroke-linecap="round" opacity="0.12296876018754177"></line><line x1="1.3259522800118058" y1="1.2829016426800797" x2="1.4178736868549566" y2="1.1650206849321632" stroke="#cc0000" stroke-width="0.05" stroke-linecap="round" opacity="0.12713716378381787"></line><line x1="1.4178736868549566" y1="1.1650206849321632" x2="1.5050443514213583" y2="1.0333131593030276" stroke="#cc0000" stroke-width="0.05" stroke-linecap="round" opacity="0.131445167488482"></line><line x1="1.5050443514213583" y1="1.0333131593030276" x2="1.5768082936763677" y2="0.9040259764253905" stroke="#cc0000" stroke-width="0.05" stroke-linecap="round" opacity="0.1361852886416924"></line><line x1="1.5768082936763677" y1="0.9040259764253905" x2="1.63826878878027" y2="0.7703257141942916" stroke="#cc0000" stroke-width="0.05" stroke-linecap="round" opacity="0.14079998711049566"></line><line x1="1.63826878878027" y1="0.7703257141942916" x2="1.689149225914338" y2="0.6329701456652523" stroke="#cc0000" stroke-width="0.05" stroke-linecap="round" opacity="0.14557388775202332"></line><line x1="1.689149225914338" y1="0.6329701456652523" x2="1.731367495235487" y2="0.4838922683659701" stroke="#cc0000" stroke-width="0.05" stroke-linecap="round" opacity="0.15050733266332678"></line><line x1="1.731367495235487" y1="0.4838922683659701" x2="1.7597792963736845" y2="0.3414630842025466" stroke="#cc0000" stroke-width="0.05" stroke-linecap="round" opacity="0.1559341564251365"></line><line x1="1.7597792963736845" y1="0.3414630842025466" x2="1.7778083910830933" y2="0.18879558065222407" stroke="#cc0000" stroke-width="0.05" stroke-linecap="round" opacity="0.1612186297280713"></line><line x1="1.7778083910830933" y1="0.18879558065222407" x2="1.7832769002871596" y2="0.044705759246652044" stroke="#cc0000" stroke-width="0.05" stroke-linecap="round" opacity="0.16703174690168687"></line><line x1="1.7832769002871596" y1="0.044705759246652044" x2="1.7768743657899968" y2="-0.10788406775751724" stroke="#cc0000" stroke-width="0.05" stroke-linecap="round" opacity="0.17269222518123256"></line><line x1="1.7768743657899968" y1="-0.10788406775751724" x2="1.7594230807325155" y2="-0.2501591850570676" stroke="#cc0000" stroke-width="0.05" stroke-linecap="round" opacity="0.17891913287848885"></line><line x1="1.7594230807325155" y1="-0.2501591850570676" x2="1.728886518608837" y2="-0.3989710761810745" stroke="#cc0000" stroke-width="0.05" stroke-linecap="round" opacity="0.18498236986406327"></line><line x1="1.728886518608837" y1="-0.3989710761810745" x2="1.686215270666406" y2="-0.5444032394951186" stroke="#cc0000" stroke-width="0.05" stroke-linecap="round" opacity="0.19165252248627207"></line><line x1="1.686215270666406" y1="-0.5444032394951186" x2="1.6317131638334215" y2="-0.6854980470921401" stroke="#cc0000" stroke-width="0.05" stroke-linecap="round" opacity="0.1985603231452435"></line><line x1="1.6317131638334215" y1="-0.6854980470921401" x2="1.5699497158599165" y2="-0.813491771592362" stroke="#cc0000" stroke-width="0.05" stroke-linecap="round" opacity="0.20571981255942978"></line><line x1="1.5699497158599165" y1="-0.813491771592362" x2="1.4936373811515422" y2="-0.943517656445086" stroke="#cc0000" stroke-width="0.05" stroke-linecap="round" opacity="0.21269164118444228"></line><line x1="1.4936373811515422" y1="-0.943517656445086" x2="1.406830836374418" y2="-1.066536024983361" stroke="#cc0000" stroke-width="0.05" stroke-linecap="round" opacity="0.22036050108230332"></line><line x1="1.406830836374418" y1="-1.066536024983361" x2="1.3101305124138667" y2="-1.18171072673071" stroke="#cc0000" stroke-width="0.05" stroke-linecap="round" opacity="0.22830505668707118"></line><line x1="1.3101305124138667" y1="-1.18171072673071" x2="1.210679984123733" y2="-1.282238316895916" stroke="#cc0000" stroke-width="0.05" stroke-linecap="round" opacity="0.23653374633581406"></line><line x1="1.210679984123733" y1="-1.282238316895916" x2="1.096747078271368" y2="-1.3799841103599375" stroke="#cc0000" stroke-width="0.05" stroke-linecap="round" opacity="0.24455320427287275"></line><line x1="1.096747078271368" y1="-1.3799841103599375" x2="0.9750772372052687" y2="-1.467726592910922" stroke="#cc0000" stroke-width="0.05" stroke-linecap="round" opacity="0.25336733220811924"></line><line x1="0.9750772372052687" y1="-1.467726592910922" x2="0.8465226411397043" y2="-1.5448535010442757" stroke="#cc0000" stroke-width="0.05" stroke-linecap="round" opacity="0.26250418308388773"></line><line x1="0.8465226411397043" y1="-1.5448535010442757" x2="0.6876954299656155" y2="-1.6212711172168603" stroke="#cc0000" stroke-width="0.05" stroke-linecap="round" opacity="0.271966604724582"></line><line x1="0.6876954299656155" y1="-1.6212711172168603" x2="0.5305555476073105" y2="-1.6788868980287996" stroke="#cc0000" stroke-width="0.05" stroke-linecap="round" opacity="0.28353921666328824"></line><line x1="0.5305555476073105" y1="-1.6788868980287996" x2="0.360116335463716" y2="-1.7231950892159067" stroke="#cc0000" stroke-width="0.05" stroke-linecap="round" opacity="0.2949877801119873"></line><line x1="0.360116335463716" y1="-1.7231950892159067" x2="0.19492252257702747" y2="-1.7493735234940602" stroke="#cc0000" stroke-width="0.05" stroke-linecap="round" opacity="0.3075378533086592"></line><line x1="0.19492252257702747" y1="-1.7493735234940602" x2="0.019229489692992263" y2="-1.759915627369846" stroke="#cc0000" stroke-width="0.05" stroke-linecap="round" opacity="0.3199550873121775"></line><line x1="0.019229489692992263" y1="-1.759915627369846" x2="-0.14783801818272002" y2="-1.7536721424166837" stroke="#cc0000" stroke-width="0.05" stroke-linecap="round" opacity="0.33356548651092194"></line><line x1="-0.14783801818272002" y1="-1.7536721424166837" x2="-0.32219548064089587" y2="-1.730046372498502" stroke="#cc0000" stroke-width="0.05" stroke-linecap="round" opacity="0.34703451267231605"></line><line x1="-0.32219548064089587" y1="-1.730046372498502" x2="-0.4848574578267767" y2="-1.6916090804355608" stroke="#cc0000" stroke-width="0.05" stroke-linecap="round" opacity="0.36180258499710666"></line><line x1="-0.4848574578267767" y1="-1.6916090804355608" x2="-0.6513143766545907" y2="-1.6346979667300892" stroke="#cc0000" stroke-width="0.05" stroke-linecap="round" opacity="0.37641140316837274"></line><line x1="-0.6513143766545907" y1="-1.6346979667300892" x2="-0.8034370237009502" y2="-1.5655096544028493" stroke="#cc0000" stroke-width="0.05" stroke-linecap="round" opacity="0.39242688996791947"></line><line x1="-0.8034370237009502" y1="-1.5655096544028493" x2="-0.9557087266283386" y2="-1.4774551091567352" stroke="#cc0000" stroke-width="0.05" stroke-linecap="round" opacity="0.4082718289990643"></line><line x1="-0.9557087266283386" y1="-1.4774551091567352" x2="-1.091542734004208" y2="-1.380124450753706" stroke="#cc0000" stroke-width="0.05" stroke-linecap="round" opacity="0.425639973297429"></line><line x1="-1.091542734004208" y1="-1.380124450753706" x2="-1.2238695439499565" y2="-1.2642508762423046" stroke="#cc0000" stroke-width="0.05" stroke-linecap="round" opacity="0.44282549346091665"></line><line x1="-1.2238695439499565" y1="-1.2642508762423046" x2="-1.338273577894998" y2="-1.1424561658904535" stroke="#cc0000" stroke-width="0.05" stroke-linecap="round" opacity="0.46166760719913486"></line><line x1="-1.338273577894998" y1="-1.1424561658904535" x2="-1.4456442572653696" y2="-1.0031459933653901" stroke="#cc0000" stroke-width="0.05" stroke-linecap="round" opacity="0.48030900158253126"></line><line x1="-1.4456442572653696" y1="-1.0031459933653901" x2="-1.5342839861347772" y2="-0.8614963351070306" stroke="#cc0000" stroke-width="0.05" stroke-linecap="round" opacity="0.5007467631995403"></line><line x1="-1.5342839861347772" y1="-0.8614963351070306" x2="-1.6126293033970291" y2="-0.704023912069504" stroke="#cc0000" stroke-width="0.05" stroke-linecap="round" opacity="0.520965569252772"></line><line x1="-1.6126293033970291" y1="-0.704023912069504" x2="-1.6748632403379267" y2="-0.5395167884571014" stroke="#cc0000" stroke-width="0.05" stroke-linecap="round" opacity="0.5431295653406184"></line><line x1="-1.6748632403379267" y1="-0.5395167884571014" x2="-1.7203636097402575" y2="-0.3696181051785649" stroke="#cc0000" stroke-width="0.05" stroke-linecap="round" opacity="0.5662331223325028"></line><line x1="-1.7203636097402575" y1="-0.3696181051785649" x2="-1.7476731226981315" y2="-0.2047658333612453" stroke="#cc0000" stroke-width="0.05" stroke-linecap="round" opacity="0.5903293866982156"></line><line x1="-1.7476731226981315" y1="-0.2047658333612453" x2="-1.7593907406764555" y2="-0.029269292417622106" stroke="#cc0000" stroke-width="0.05" stroke-linecap="round" opacity="0.6141657695623943"></line><line x1="-1.7593907406764555" y1="-0.029269292417622106" x2="-1.7542395881934256" y2="0.13775172452388518" stroke="#cc0000" stroke-width="0.05" stroke-linecap="round" opacity="0.6402981506186787"></line><line x1="-1.7542395881934256" y1="0.13775172452388518" x2="-1.7317291394164462" y2="0.31219410931039404" stroke="#cc0000" stroke-width="0.05" stroke-linecap="round" opacity="0.6661514859032319"></line><line x1="-1.7317291394164462" y1="0.31219410931039404" x2="-1.6943116662588877" y2="0.47505278510806637" stroke="#cc0000" stroke-width="0.05" stroke-linecap="round" opacity="0.6944910339993186"></line><line x1="-1.6943116662588877" y1="0.47505278510806637" x2="-1.6384256662774843" y2="0.641828388920753" stroke="#cc0000" stroke-width="0.05" stroke-linecap="round" opacity="0.7225317707871763"></line><line x1="-1.6384256662774843" y1="0.641828388920753" x2="-1.5701596721183726" y2="0.7943510760371987" stroke="#cc0000" stroke-width="0.05" stroke-linecap="round" opacity="0.7532719230740275"></line><line x1="-1.5701596721183726" y1="0.7943510760371987" x2="-1.4830161284982313" y2="0.9471376985003821" stroke="#cc0000" stroke-width="0.05" stroke-linecap="round" opacity="0.7836880078128784"></line><line x1="-1.4830161284982313" y1="0.9471376985003821" x2="-1.3864890517704145" y2="1.0835424784146415" stroke="#cc0000" stroke-width="0.05" stroke-linecap="round" opacity="0.8170361657197958"></line><line x1="-1.3864890517704145" y1="1.0835424784146415" x2="-1.2713910734645117" y2="1.2165482008639668" stroke="#cc0000" stroke-width="0.05" stroke-linecap="round" opacity="0.8500260779681497"></line><line x1="-1.2713910734645117" y1="1.2165482008639668" x2="-1.1502618013518089" y2="1.3316641878618587" stroke="#cc0000" stroke-width="0.05" stroke-linecap="round" opacity="0.8861909764190935"></line><line x1="-1.1502618013518089" y1="1.3316641878618587" x2="-1.0115722759243069" y2="1.4398470083618906" stroke="#cc0000" stroke-width="0.05" stroke-linecap="round" opacity="0.9219722354995916"></line><line x1="-1.0115722759243069" y1="1.4398470083618906" x2="-0.8704323496083088" y2="1.5293103997143347" stroke="#cc0000" stroke-width="0.05" stroke-linecap="round" opacity="0.9611915137594691"></line></g><g><circle cx="-1.280255708126877" cy="1.015020916014764" r="0.11666666666666667" fill="#f97316"></circle><circle cx="-0.8704323496083088" cy="1.5293103997143347" r="0.13333333333333333" fill="#cc0000"></circle></g><g><g opacity="1"><line x1="0.7255450440166296" y1="1.7034668828681996" x2="1.075231161487123" y2="1.475968461437939" stroke="#ff3333" stroke-width="0.075" stroke-linecap="round"></line><polygon points="1.2638310674862576,1.3532693356989278 1.1243108117827274,1.5514084238375927 1.0261515111915187,1.4005284990382851" fill="#ff3333"></polygon></g><g opacity="1"><line x1="1.1305466321639628" y1="-1.1840771241185764" x2="0.810961508520965" y2="-1.483921908935427" stroke="#ff3333" stroke-width="0.075" stroke-linecap="round"></line><polygon points="0.646875528134605,-1.63787252127798 0.8725417534579863,-1.5495563010899709 0.7493812635839437,-1.418287516780883" fill="#ff3333"></polygon></g><g opacity="1"><line x1="-1.280255708126877" y1="1.015020916014764" x2="-1.0106529585371324" y2="1.3533468215749087" stroke="#ff3333" stroke-width="0.075" stroke-linecap="round"></line><polygon points="-0.8704323496083088,1.5293103997143347 -1.0810383897929028,1.4094350651464382 -0.940267527281362,1.2972585780033792" fill="#ff3333"></polygon></g></g></g></svg>